# Blender v2.79 (sub 0) OBJ File: 'cube.blend'
# www.blender.org
mtllib cube.mtl
o Cube
v 1.000000 -1.000000 -1.000000
v 1.000000 -1.000000 1.000000
v -1.000000 -1.000000 1.000000
v -1.000000 -1.000000 -1.000000
v 1.000000 1.000000 -0.999999
v 0.999999 1.000000 1.000001
v -1.000000 1.000000 1.000000
v -1.000000 1.000000 -1.000000
vt 1.001302 0.332357
vt 0.667969 0.665690
vt 0.667969 0.332357
vt 0.666667 0.998372
vt 0.333333 0.665039
vt 0.666667 0.665039
vt 0.000000 1.000000
vt 0.333333 0.666667
vt 0.333333 1.000000
vt 0.667318 0.665365
vt 1.000651 0.998698
vt 0.667318 0.998698
vt 0.667318 0.665365
vt 0.333984 0.332031
vt 0.667318 0.332031
vt 0.333984 0.333008
vt 0.000651 0.666341
vt 0.000651 0.333008
vt 1.001302 0.665690
vt 0.333334 0.998372
vt 0.000000 0.666667
vt 1.000651 0.665365
vt 0.333984 0.665365
vt 0.333984 0.666341
vn 0.0000 -1.0000 0.0000
vn 0.0000 1.0000 0.0000
vn 1.0000 -0.0000 0.0000
vn 0.0000 -0.0000 1.0000
vn -1.0000 -0.0000 -0.0000
vn 0.0000 0.0000 -1.0000
usemtl Material
s off
f 2/1/1 4/2/1 1/3/1
f 8/4/2 6/5/2 5/6/2
f 5/7/3 2/8/3 1/9/3
f 6/10/4 3/11/4 2/12/4
f 3/13/5 8/14/5 4/15/5
f 1/16/6 8/17/6 5/18/6
f 2/1/1 3/19/1 4/2/1
f 8/4/2 7/20/2 6/5/2
f 5/7/3 6/21/3 2/8/3
f 6/10/4 7/22/4 3/11/4
f 3/13/5 7/23/5 8/14/5
f 1/16/6 4/24/6 8/17/6
